<svg width="24" height="24" viewBox="0 0 24 24" fill="none" xmlns="http://www.w3.org/2000/svg">
<mask id="path-1-inside-1_733_355" fill="white">
<path d="M7.80502 7.22856C7.83883 7.26126 7.86827 7.31249 7.91733 7.31903C8.01547 7.33211 8.13214 7.33429 8.22809 7.31903C8.39165 7.29069 8.49523 7.16425 8.4647 7.05744C8.46034 7.04327 8.45925 7.02256 8.4756 7.01602C8.5661 6.98114 8.54757 6.92119 8.51922 6.88631C8.43744 6.78277 8.50177 6.68903 8.49741 6.59202C8.49632 6.53861 8.50722 6.4863 8.51486 6.43289C8.52576 6.3773 8.50832 6.32171 8.49305 6.26285C8.48433 6.22253 8.61953 6.19964 8.51813 6.12988C8.71222 6.05358 8.4309 5.84431 8.65552 5.77782C8.67296 5.77346 8.6795 5.74512 8.66642 5.73422C8.56938 5.6503 8.66206 5.6067 8.6577 5.54348C8.6577 5.4759 8.61081 5.39416 8.66424 5.33748C8.68387 5.31786 8.67514 5.2808 8.70349 5.26881C8.80163 5.2263 8.8267 5.16199 8.782 5.06281C8.77546 5.04864 8.79072 5.02902 8.80817 5.02902C8.89431 5.02902 8.87904 4.97452 8.89867 4.93855C8.9401 4.86443 8.96736 4.78269 9.01316 4.71075C9.05786 4.63227 9.10911 4.55815 9.14509 4.47423C9.17453 4.39793 9.1898 4.31182 9.23123 4.24098C9.32391 4.07748 9.44931 3.93688 9.57579 3.80063C9.711 3.68292 9.80477 3.5107 10.0043 3.47146C10.1166 3.44748 10.1766 3.34067 10.2693 3.28617C10.35 3.23494 10.4732 3.27091 10.5386 3.19897C10.5986 3.13466 10.6422 3.00823 10.7708 3.08562C10.7807 3.09216 10.7959 3.08562 10.797 3.07254C10.8177 2.9352 10.9279 2.98643 10.9933 2.94501C11.0096 2.9352 11.0489 2.97662 11.0565 2.95918C11.099 2.86217 11.1939 2.93738 11.243 2.87307C11.2975 2.80768 11.3629 2.78043 11.4327 2.78261C11.4916 2.78697 11.5515 2.82294 11.6082 2.82948C11.6464 2.83384 11.6889 2.85999 11.7162 2.76735C11.7522 2.8382 11.7958 2.82621 11.8383 2.82839C12.015 2.83275 12.1872 2.86108 12.3595 2.89923C12.3879 2.90359 12.4184 2.91013 12.4489 2.89923C12.5383 2.86435 12.6092 2.89596 12.6648 2.97117C12.7019 3.01586 12.7542 3.06273 12.8098 3.03875C12.8731 3.0115 12.9069 3.03766 12.9461 3.05292C13.0454 3.0878 13.1239 3.16082 13.2198 3.20224C13.3332 3.24584 13.3485 3.39299 13.3463 3.53577C13.3463 3.60662 13.3638 3.66003 13.4106 3.64695C13.475 3.62951 13.4968 3.65785 13.5306 3.67529C13.5742 3.69599 13.6353 3.69817 13.6691 3.73087C13.7029 3.76357 13.7083 3.82461 13.7279 3.86821C13.7367 3.88674 13.7487 3.9129 13.7716 3.90854C13.885 3.88347 13.8937 3.96849 13.9362 4.01426C14.0463 4.12326 14.1336 4.25515 14.2153 4.38703C14.2971 4.51347 14.3931 4.63772 14.4029 4.80449C14.404 4.89059 14.4748 4.95272 14.5457 5.01703C14.6199 5.08461 14.7027 5.17289 14.6231 5.31023C14.6024 5.34729 14.6624 5.37563 14.6515 5.41377C14.6373 5.45955 14.766 5.43666 14.7071 5.50533C14.6777 5.53694 14.7256 5.57182 14.7267 5.60997C14.742 5.83559 14.9284 6.01216 14.9524 6.24106C14.9601 6.29991 14.9186 6.37512 15.0429 6.40891C15.0538 6.41218 15.0571 6.43398 15.0484 6.43834C14.8717 6.52336 14.9513 6.56368 15.0658 6.61273C15.0931 6.62472 15.0756 6.66396 15.0789 6.69121C15.1127 6.90484 15.0953 7.12174 15.1203 7.33647C15.1214 7.42257 15.0702 7.49887 15.0255 7.57517C14.9731 7.66127 14.863 7.74302 14.9154 7.83022C14.9677 7.91851 14.9339 7.9948 14.9393 8.07655C14.9415 8.10816 14.9263 8.13977 14.9372 8.17138C14.9797 8.29781 14.9775 8.2989 14.9012 8.41662C14.8935 8.42861 14.8935 8.44496 14.8979 8.46022C14.9066 8.49074 14.9295 8.52344 14.9295 8.55286C14.9295 8.79702 14.7529 8.99757 14.8205 9.26243C14.8238 9.2766 14.7998 9.28641 14.7889 9.2984C14.766 9.32238 14.7485 9.34854 14.7191 9.36816C14.6275 9.42919 14.8139 9.58506 14.6471 9.61994C14.7267 9.69514 14.6493 9.72784 14.6395 9.77798C14.6286 9.82594 14.5719 9.86409 14.5937 9.91423C14.6253 9.98616 14.5403 9.99161 14.5348 10.0385C14.5315 10.0592 14.5185 10.0821 14.5326 10.1028C14.5839 10.1802 14.5272 10.2172 14.4934 10.2554C14.4563 10.2968 14.3843 10.3142 14.4301 10.3949C14.3146 10.5453 14.308 10.7513 14.2033 10.9105C14.1641 10.9649 14.0867 10.9911 14.0409 11.0402C13.9918 11.0903 13.9569 11.1524 13.9166 11.2102C13.8806 11.2647 13.8337 11.3094 13.7934 11.3584L13.668 11.5045L13.5469 11.632C13.5099 11.6767 13.5033 11.765 13.4433 11.7737C13.3659 11.7835 13.3398 11.8435 13.2863 11.8729C13.2133 11.9165 13.1555 11.9786 13.0835 12.0222C12.9996 12.0767 12.9243 12.1432 12.8055 12.1377C12.7324 12.1356 12.6485 12.1476 12.6288 12.2675C12.6267 12.2838 12.6049 12.2947 12.5929 12.2849C12.5089 12.2086 12.4805 12.2849 12.4315 12.3002C12.3421 12.3263 12.2548 12.3895 12.1611 12.3568C12.0869 12.3307 12.0302 12.3568 11.9659 12.3383C11.9016 12.322 11.8394 12.2903 11.7805 12.2947C11.7009 12.2969 11.6268 12.2337 11.5406 12.3383C11.424 12.2958 11.2877 12.3579 11.159 12.3274C11.0129 12.2685 10.8635 12.2151 10.7218 12.1399C10.6618 12.1083 10.6302 12.0277 10.5168 12.0865C10.4972 12.0963 10.4688 12.0724 10.4721 12.0495C10.4917 11.9612 10.4415 11.959 10.4077 11.9405C10.3609 11.9143 10.338 11.8609 10.2529 11.8762C10.2017 11.8838 10.2071 11.7792 10.1668 11.7388C10.1003 11.6789 10.0043 11.6429 10.0098 11.5143C10.0119 11.4838 9.96724 11.4707 9.93234 11.4696C9.8462 11.4696 9.79932 11.4129 9.80368 11.3464C9.80695 11.281 9.7786 11.2527 9.75025 11.2189C9.6881 11.147 9.61614 11.0805 9.53872 11.0184C9.39152 10.9017 9.34027 10.7143 9.18326 10.5922C9.06768 10.5028 9.0873 10.3339 8.93574 10.2554C8.86814 10.2172 8.90085 10.1235 8.8954 10.0537C8.88231 9.94256 8.81144 9.8521 8.77982 9.74746C8.74602 9.64828 8.76346 9.53056 8.72966 9.43246C8.68714 9.30167 8.65879 9.17087 8.56283 9.05207C8.4647 8.93326 8.51268 8.76977 8.51704 8.6248C8.51813 8.48638 8.41127 8.35994 8.5105 8.2128C8.44398 8.0166 8.53994 7.8106 8.52358 7.6155C8.50504 7.45854 8.51595 7.46072 8.28697 7.36263C8.25099 7.34737 8.19974 7.3332 8.15394 7.33102C7.94568 7.31685 7.77667 7.39096 7.76032 7.51304C7.75487 7.55555 7.6829 7.59479 7.7516 7.6482C7.7854 7.67436 7.71125 7.74411 7.70689 7.79425C7.70362 7.8324 7.73306 7.86946 7.7516 7.90652C7.75487 7.91415 7.75923 7.92396 7.75378 7.93159C7.68181 8.03404 7.75596 8.12996 7.74614 8.22915C7.73524 8.32833 7.71234 8.4297 7.7287 8.52561C7.75814 8.74688 7.80066 8.96596 7.86827 9.1785C7.88898 9.24935 7.87263 9.33328 7.97621 9.37906C8.01874 9.39867 8.03618 9.46952 8.00565 9.51094C7.96095 9.57307 7.99475 9.60904 8.00565 9.65264L8.09615 9.92731L8.20737 10.1954C8.39928 10.2063 8.21282 10.3807 8.30769 10.4363C8.3404 10.4548 8.32404 10.5039 8.39164 10.5072C8.42327 10.5083 8.45598 10.5529 8.44071 10.5726C8.37965 10.6532 8.43526 10.6892 8.46143 10.7317C8.55847 10.8985 8.62608 11.0903 8.79835 11.2135C8.90194 11.281 8.95864 11.3966 9.01098 11.5077C9.06441 11.6276 9.21488 11.6582 9.29338 11.7519C9.337 11.8064 9.39261 11.85 9.37843 11.9492C9.57361 12.0789 9.64885 12.3263 9.84402 12.4702C9.89527 12.5116 9.97051 12.4942 10.025 12.5181C10.0904 12.5487 10.1024 12.6304 10.1482 12.6816C10.1559 12.6904 10.1722 12.7002 10.1831 12.6936C10.2725 12.6348 10.2987 12.7056 10.3478 12.7296C10.4154 12.7601 10.483 12.7885 10.5092 12.8866C10.7316 12.8288 10.8537 13.0108 11.0489 13.0173C11.0947 13.0206 11.1427 13.0697 11.1808 13.0435C11.3117 12.9574 11.424 13.0468 11.5494 12.989C11.6704 12.9367 11.8067 12.9923 11.9397 12.9748C11.9768 12.9716 12.027 12.9443 12.0488 12.9748C12.1087 13.0533 12.1622 13.0086 12.2145 13.0097C12.269 13.0152 12.3279 13.0391 12.3802 13.0315C12.655 12.9999 12.92 12.9051 13.1664 12.7895C13.2253 12.7612 13.2754 12.7198 13.3354 12.6936C13.3921 12.6686 13.4281 12.6206 13.5142 12.6337C13.5786 12.6446 13.6472 12.5868 13.6647 12.5236C13.6821 12.4626 13.68 12.4124 13.7672 12.4517C13.7377 12.3503 13.813 12.3448 13.8479 12.3056C14.0234 12.1334 14.26 12.0244 14.4083 11.8217C14.4923 11.7225 14.4345 11.5263 14.6308 11.5121C14.646 11.511 14.6504 11.4816 14.6449 11.4609C14.6166 11.3595 14.6733 11.2908 14.7387 11.2745C14.827 11.2516 14.8488 11.1917 14.8772 11.1361C14.9862 10.941 15.0538 10.7273 15.1432 10.5268C15.2784 10.2227 15.4115 9.9175 15.5063 9.60032C15.5216 9.55236 15.5412 9.50767 15.5161 9.44336C15.4736 9.342 15.5848 9.25916 15.5085 9.14689C15.6699 9.06406 15.6186 8.91364 15.6546 8.79266C15.7571 8.50491 15.6928 8.19427 15.8465 7.90761C15.8792 7.85311 15.8531 7.78771 15.8607 7.72776C15.8662 7.66891 15.8422 7.59261 15.8967 7.55664C15.997 7.48797 15.8422 7.45418 15.864 7.39423C15.9 7.3005 15.8673 7.20131 15.8662 7.1043C15.8629 7.01384 15.9021 6.91029 15.8444 6.83508C15.7713 6.74353 15.7866 6.66505 15.8258 6.5724C15.8324 6.55496 15.8356 6.52772 15.8182 6.519C15.6906 6.45469 15.7844 6.3446 15.7201 6.27375C15.6437 6.1931 15.623 6.10699 15.6132 6.01434C15.6088 5.9653 15.6415 5.90862 15.6415 5.85739C15.6437 5.8018 15.6437 5.73858 15.599 5.70152C15.4922 5.61651 15.4965 5.50315 15.454 5.4007C15.4267 5.33312 15.4333 5.25137 15.3308 5.20995C15.2839 5.19142 15.2904 5.11513 15.3079 5.06063C15.3308 4.9767 15.237 4.92547 15.3112 4.82847C15.2436 4.80776 15.2087 4.7707 15.1901 4.72056C15.1629 4.64753 15.1193 4.58104 15.0942 4.50693C15.0702 4.44153 14.995 4.40229 15.0288 4.30637C15.0647 4.19738 14.8728 4.23771 14.8826 4.14179C14.8837 4.11672 14.8434 4.10146 14.851 4.07857C14.8903 3.96413 14.8074 3.91399 14.7616 3.8475C14.6024 3.6088 14.4083 3.39081 14.2033 3.18371C14.091 3.05728 13.9798 2.92757 13.8566 2.80441C13.8522 2.80005 13.8413 2.79896 13.8424 2.79242C13.8566 2.64745 13.7279 2.66053 13.6712 2.59513C13.6145 2.52756 13.5698 2.44145 13.4859 2.40112C13.3747 2.34771 13.2711 2.29866 13.162 2.24635C13.0584 2.19948 12.9516 2.1537 12.8218 2.17005C12.703 2.18531 12.5972 2.0992 12.4762 2.0883C12.4282 2.08176 12.3715 2.12536 12.3257 2.11555C12.2745 2.10465 12.2298 2.04688 12.1752 2.03053C12.1207 2.01745 12.0651 2.02617 12.0062 2.06759C11.9746 2.09048 11.907 1.9695 11.8525 2.00982C11.7326 2.09593 11.6137 2.06105 11.4938 2.07631C11.3902 2.09157 11.2866 2.09157 11.1841 2.11555C11.1525 2.12209 11.1056 2.10901 11.0903 2.13735C11.0238 2.27251 10.9071 2.21583 10.8177 2.26161C10.7196 2.30738 10.6149 2.33354 10.5102 2.36297C10.4863 2.37169 10.4405 2.33572 10.4208 2.35316C10.2704 2.49922 10.2693 2.48396 10.0316 2.54173C9.99231 2.55263 9.9716 2.60385 9.94434 2.63655C9.93343 2.65072 9.92798 2.6856 9.9149 2.68233C9.74371 2.63655 9.70773 2.82185 9.58015 2.83602C9.42532 2.85236 9.33591 2.95264 9.25413 3.04965C8.96627 3.33522 8.64243 3.61207 8.5323 4.01644C8.38728 4.21264 8.30551 4.44044 8.14522 4.63445C7.99257 4.79795 7.96749 5.02902 7.89225 5.23066C7.88789 5.24265 7.87372 5.25573 7.88135 5.26554C7.9664 5.37672 7.85736 5.4432 7.87154 5.53476C7.88789 5.6285 7.88789 5.7146 7.86172 5.79962C7.82138 5.96966 7.77122 6.13969 7.76468 6.31408C7.76795 6.48739 7.60549 6.63453 7.63929 6.79476C7.63493 6.89176 7.60876 6.97351 7.63602 7.04981C7.65891 7.11411 7.74287 7.17188 7.80175 7.22856H7.80502Z"/>
</mask>
<path d="M7.80502 7.22856C7.83883 7.26126 7.86827 7.31249 7.91733 7.31903C8.01547 7.33211 8.13214 7.33429 8.22809 7.31903C8.39165 7.29069 8.49523 7.16425 8.4647 7.05744C8.46034 7.04327 8.45925 7.02256 8.4756 7.01602C8.5661 6.98114 8.54757 6.92119 8.51922 6.88631C8.43744 6.78277 8.50177 6.68903 8.49741 6.59202C8.49632 6.53861 8.50722 6.4863 8.51486 6.43289C8.52576 6.3773 8.50832 6.32171 8.49305 6.26285C8.48433 6.22253 8.61953 6.19964 8.51813 6.12988C8.71222 6.05358 8.4309 5.84431 8.65552 5.77782C8.67296 5.77346 8.6795 5.74512 8.66642 5.73422C8.56938 5.6503 8.66206 5.6067 8.6577 5.54348C8.6577 5.4759 8.61081 5.39416 8.66424 5.33748C8.68387 5.31786 8.67514 5.2808 8.70349 5.26881C8.80163 5.2263 8.8267 5.16199 8.782 5.06281C8.77546 5.04864 8.79072 5.02902 8.80817 5.02902C8.89431 5.02902 8.87904 4.97452 8.89867 4.93855C8.9401 4.86443 8.96736 4.78269 9.01316 4.71075C9.05786 4.63227 9.10911 4.55815 9.14509 4.47423C9.17453 4.39793 9.1898 4.31182 9.23123 4.24098C9.32391 4.07748 9.44931 3.93688 9.57579 3.80063C9.711 3.68292 9.80477 3.5107 10.0043 3.47146C10.1166 3.44748 10.1766 3.34067 10.2693 3.28617C10.35 3.23494 10.4732 3.27091 10.5386 3.19897C10.5986 3.13466 10.6422 3.00823 10.7708 3.08562C10.7807 3.09216 10.7959 3.08562 10.797 3.07254C10.8177 2.9352 10.9279 2.98643 10.9933 2.94501C11.0096 2.9352 11.0489 2.97662 11.0565 2.95918C11.099 2.86217 11.1939 2.93738 11.243 2.87307C11.2975 2.80768 11.3629 2.78043 11.4327 2.78261C11.4916 2.78697 11.5515 2.82294 11.6082 2.82948C11.6464 2.83384 11.6889 2.85999 11.7162 2.76735C11.7522 2.8382 11.7958 2.82621 11.8383 2.82839C12.015 2.83275 12.1872 2.86108 12.3595 2.89923C12.3879 2.90359 12.4184 2.91013 12.4489 2.89923C12.5383 2.86435 12.6092 2.89596 12.6648 2.97117C12.7019 3.01586 12.7542 3.06273 12.8098 3.03875C12.8731 3.0115 12.9069 3.03766 12.9461 3.05292C13.0454 3.0878 13.1239 3.16082 13.2198 3.20224C13.3332 3.24584 13.3485 3.39299 13.3463 3.53577C13.3463 3.60662 13.3638 3.66003 13.4106 3.64695C13.475 3.62951 13.4968 3.65785 13.5306 3.67529C13.5742 3.69599 13.6353 3.69817 13.6691 3.73087C13.7029 3.76357 13.7083 3.82461 13.7279 3.86821C13.7367 3.88674 13.7487 3.9129 13.7716 3.90854C13.885 3.88347 13.8937 3.96849 13.9362 4.01426C14.0463 4.12326 14.1336 4.25515 14.2153 4.38703C14.2971 4.51347 14.3931 4.63772 14.4029 4.80449C14.404 4.89059 14.4748 4.95272 14.5457 5.01703C14.6199 5.08461 14.7027 5.17289 14.6231 5.31023C14.6024 5.34729 14.6624 5.37563 14.6515 5.41377C14.6373 5.45955 14.766 5.43666 14.7071 5.50533C14.6777 5.53694 14.7256 5.57182 14.7267 5.60997C14.742 5.83559 14.9284 6.01216 14.9524 6.24106C14.9601 6.29991 14.9186 6.37512 15.0429 6.40891C15.0538 6.41218 15.0571 6.43398 15.0484 6.43834C14.8717 6.52336 14.9513 6.56368 15.0658 6.61273C15.0931 6.62472 15.0756 6.66396 15.0789 6.69121C15.1127 6.90484 15.0953 7.12174 15.1203 7.33647C15.1214 7.42257 15.0702 7.49887 15.0255 7.57517C14.9731 7.66127 14.863 7.74302 14.9154 7.83022C14.9677 7.91851 14.9339 7.9948 14.9393 8.07655C14.9415 8.10816 14.9263 8.13977 14.9372 8.17138C14.9797 8.29781 14.9775 8.2989 14.9012 8.41662C14.8935 8.42861 14.8935 8.44496 14.8979 8.46022C14.9066 8.49074 14.9295 8.52344 14.9295 8.55286C14.9295 8.79702 14.7529 8.99757 14.8205 9.26243C14.8238 9.2766 14.7998 9.28641 14.7889 9.2984C14.766 9.32238 14.7485 9.34854 14.7191 9.36816C14.6275 9.42919 14.8139 9.58506 14.6471 9.61994C14.7267 9.69514 14.6493 9.72784 14.6395 9.77798C14.6286 9.82594 14.5719 9.86409 14.5937 9.91423C14.6253 9.98616 14.5403 9.99161 14.5348 10.0385C14.5315 10.0592 14.5185 10.0821 14.5326 10.1028C14.5839 10.1802 14.5272 10.2172 14.4934 10.2554C14.4563 10.2968 14.3843 10.3142 14.4301 10.3949C14.3146 10.5453 14.308 10.7513 14.2033 10.9105C14.1641 10.9649 14.0867 10.9911 14.0409 11.0402C13.9918 11.0903 13.9569 11.1524 13.9166 11.2102C13.8806 11.2647 13.8337 11.3094 13.7934 11.3584L13.668 11.5045L13.5469 11.632C13.5099 11.6767 13.5033 11.765 13.4433 11.7737C13.3659 11.7835 13.3398 11.8435 13.2863 11.8729C13.2133 11.9165 13.1555 11.9786 13.0835 12.0222C12.9996 12.0767 12.9243 12.1432 12.8055 12.1377C12.7324 12.1356 12.6485 12.1476 12.6288 12.2675C12.6267 12.2838 12.6049 12.2947 12.5929 12.2849C12.5089 12.2086 12.4805 12.2849 12.4315 12.3002C12.3421 12.3263 12.2548 12.3895 12.1611 12.3568C12.0869 12.3307 12.0302 12.3568 11.9659 12.3383C11.9016 12.322 11.8394 12.2903 11.7805 12.2947C11.7009 12.2969 11.6268 12.2337 11.5406 12.3383C11.424 12.2958 11.2877 12.3579 11.159 12.3274C11.0129 12.2685 10.8635 12.2151 10.7218 12.1399C10.6618 12.1083 10.6302 12.0277 10.5168 12.0865C10.4972 12.0963 10.4688 12.0724 10.4721 12.0495C10.4917 11.9612 10.4415 11.959 10.4077 11.9405C10.3609 11.9143 10.338 11.8609 10.2529 11.8762C10.2017 11.8838 10.2071 11.7792 10.1668 11.7388C10.1003 11.6789 10.0043 11.6429 10.0098 11.5143C10.0119 11.4838 9.96724 11.4707 9.93234 11.4696C9.8462 11.4696 9.79932 11.4129 9.80368 11.3464C9.80695 11.281 9.7786 11.2527 9.75025 11.2189C9.6881 11.147 9.61614 11.0805 9.53872 11.0184C9.39152 10.9017 9.34027 10.7143 9.18326 10.5922C9.06768 10.5028 9.0873 10.3339 8.93574 10.2554C8.86814 10.2172 8.90085 10.1235 8.8954 10.0537C8.88231 9.94256 8.81144 9.8521 8.77982 9.74746C8.74602 9.64828 8.76346 9.53056 8.72966 9.43246C8.68714 9.30167 8.65879 9.17087 8.56283 9.05207C8.4647 8.93326 8.51268 8.76977 8.51704 8.6248C8.51813 8.48638 8.41127 8.35994 8.5105 8.2128C8.44398 8.0166 8.53994 7.8106 8.52358 7.6155C8.50504 7.45854 8.51595 7.46072 8.28697 7.36263C8.25099 7.34737 8.19974 7.3332 8.15394 7.33102C7.94568 7.31685 7.77667 7.39096 7.76032 7.51304C7.75487 7.55555 7.6829 7.59479 7.7516 7.6482C7.7854 7.67436 7.71125 7.74411 7.70689 7.79425C7.70362 7.8324 7.73306 7.86946 7.7516 7.90652C7.75487 7.91415 7.75923 7.92396 7.75378 7.93159C7.68181 8.03404 7.75596 8.12996 7.74614 8.22915C7.73524 8.32833 7.71234 8.4297 7.7287 8.52561C7.75814 8.74688 7.80066 8.96596 7.86827 9.1785C7.88898 9.24935 7.87263 9.33328 7.97621 9.37906C8.01874 9.39867 8.03618 9.46952 8.00565 9.51094C7.96095 9.57307 7.99475 9.60904 8.00565 9.65264L8.09615 9.92731L8.20737 10.1954C8.39928 10.2063 8.21282 10.3807 8.30769 10.4363C8.3404 10.4548 8.32404 10.5039 8.39164 10.5072C8.42327 10.5083 8.45598 10.5529 8.44071 10.5726C8.37965 10.6532 8.43526 10.6892 8.46143 10.7317C8.55847 10.8985 8.62608 11.0903 8.79835 11.2135C8.90194 11.281 8.95864 11.3966 9.01098 11.5077C9.06441 11.6276 9.21488 11.6582 9.29338 11.7519C9.337 11.8064 9.39261 11.85 9.37843 11.9492C9.57361 12.0789 9.64885 12.3263 9.84402 12.4702C9.89527 12.5116 9.97051 12.4942 10.025 12.5181C10.0904 12.5487 10.1024 12.6304 10.1482 12.6816C10.1559 12.6904 10.1722 12.7002 10.1831 12.6936C10.2725 12.6348 10.2987 12.7056 10.3478 12.7296C10.4154 12.7601 10.483 12.7885 10.5092 12.8866C10.7316 12.8288 10.8537 13.0108 11.0489 13.0173C11.0947 13.0206 11.1427 13.0697 11.1808 13.0435C11.3117 12.9574 11.424 13.0468 11.5494 12.989C11.6704 12.9367 11.8067 12.9923 11.9397 12.9748C11.9768 12.9716 12.027 12.9443 12.0488 12.9748C12.1087 13.0533 12.1622 13.0086 12.2145 13.0097C12.269 13.0152 12.3279 13.0391 12.3802 13.0315C12.655 12.9999 12.92 12.9051 13.1664 12.7895C13.2253 12.7612 13.2754 12.7198 13.3354 12.6936C13.3921 12.6686 13.4281 12.6206 13.5142 12.6337C13.5786 12.6446 13.6472 12.5868 13.6647 12.5236C13.6821 12.4626 13.68 12.4124 13.7672 12.4517C13.7377 12.3503 13.813 12.3448 13.8479 12.3056C14.0234 12.1334 14.26 12.0244 14.4083 11.8217C14.4923 11.7225 14.4345 11.5263 14.6308 11.5121C14.646 11.511 14.6504 11.4816 14.6449 11.4609C14.6166 11.3595 14.6733 11.2908 14.7387 11.2745C14.827 11.2516 14.8488 11.1917 14.8772 11.1361C14.9862 10.941 15.0538 10.7273 15.1432 10.5268C15.2784 10.2227 15.4115 9.9175 15.5063 9.60032C15.5216 9.55236 15.5412 9.50767 15.5161 9.44336C15.4736 9.342 15.5848 9.25916 15.5085 9.14689C15.6699 9.06406 15.6186 8.91364 15.6546 8.79266C15.7571 8.50491 15.6928 8.19427 15.8465 7.90761C15.8792 7.85311 15.8531 7.78771 15.8607 7.72776C15.8662 7.66891 15.8422 7.59261 15.8967 7.55664C15.997 7.48797 15.8422 7.45418 15.864 7.39423C15.9 7.3005 15.8673 7.20131 15.8662 7.1043C15.8629 7.01384 15.9021 6.91029 15.8444 6.83508C15.7713 6.74353 15.7866 6.66505 15.8258 6.5724C15.8324 6.55496 15.8356 6.52772 15.8182 6.519C15.6906 6.45469 15.7844 6.3446 15.7201 6.27375C15.6437 6.1931 15.623 6.10699 15.6132 6.01434C15.6088 5.9653 15.6415 5.90862 15.6415 5.85739C15.6437 5.8018 15.6437 5.73858 15.599 5.70152C15.4922 5.61651 15.4965 5.50315 15.454 5.4007C15.4267 5.33312 15.4333 5.25137 15.3308 5.20995C15.2839 5.19142 15.2904 5.11513 15.3079 5.06063C15.3308 4.9767 15.237 4.92547 15.3112 4.82847C15.2436 4.80776 15.2087 4.7707 15.1901 4.72056C15.1629 4.64753 15.1193 4.58104 15.0942 4.50693C15.0702 4.44153 14.995 4.40229 15.0288 4.30637C15.0647 4.19738 14.8728 4.23771 14.8826 4.14179C14.8837 4.11672 14.8434 4.10146 14.851 4.07857C14.8903 3.96413 14.8074 3.91399 14.7616 3.8475C14.6024 3.6088 14.4083 3.39081 14.2033 3.18371C14.091 3.05728 13.9798 2.92757 13.8566 2.80441C13.8522 2.80005 13.8413 2.79896 13.8424 2.79242C13.8566 2.64745 13.7279 2.66053 13.6712 2.59513C13.6145 2.52756 13.5698 2.44145 13.4859 2.40112C13.3747 2.34771 13.2711 2.29866 13.162 2.24635C13.0584 2.19948 12.9516 2.1537 12.8218 2.17005C12.703 2.18531 12.5972 2.0992 12.4762 2.0883C12.4282 2.08176 12.3715 2.12536 12.3257 2.11555C12.2745 2.10465 12.2298 2.04688 12.1752 2.03053C12.1207 2.01745 12.0651 2.02617 12.0062 2.06759C11.9746 2.09048 11.907 1.9695 11.8525 2.00982C11.7326 2.09593 11.6137 2.06105 11.4938 2.07631C11.3902 2.09157 11.2866 2.09157 11.1841 2.11555C11.1525 2.12209 11.1056 2.10901 11.0903 2.13735C11.0238 2.27251 10.9071 2.21583 10.8177 2.26161C10.7196 2.30738 10.6149 2.33354 10.5102 2.36297C10.4863 2.37169 10.4405 2.33572 10.4208 2.35316C10.2704 2.49922 10.2693 2.48396 10.0316 2.54173C9.99231 2.55263 9.9716 2.60385 9.94434 2.63655C9.93343 2.65072 9.92798 2.6856 9.9149 2.68233C9.74371 2.63655 9.70773 2.82185 9.58015 2.83602C9.42532 2.85236 9.33591 2.95264 9.25413 3.04965C8.96627 3.33522 8.64243 3.61207 8.5323 4.01644C8.38728 4.21264 8.30551 4.44044 8.14522 4.63445C7.99257 4.79795 7.96749 5.02902 7.89225 5.23066C7.88789 5.24265 7.87372 5.25573 7.88135 5.26554C7.9664 5.37672 7.85736 5.4432 7.87154 5.53476C7.88789 5.6285 7.88789 5.7146 7.86172 5.79962C7.82138 5.96966 7.77122 6.13969 7.76468 6.31408C7.76795 6.48739 7.60549 6.63453 7.63929 6.79476C7.63493 6.89176 7.60876 6.97351 7.63602 7.04981C7.65891 7.11411 7.74287 7.17188 7.80175 7.22856H7.80502Z" fill="black" stroke="black" mask="url(#path-1-inside-1_733_355)"/>
<path d="M22.4858 21.4427C22.4204 21.2008 22.4749 21.0166 22.4705 20.8051C22.4673 20.6918 22.4749 20.5806 22.4792 20.4683C22.4836 20.3495 22.4564 20.2351 22.4324 20.1228C22.4171 20.0465 22.5425 19.9429 22.4269 19.8492C22.6014 19.5909 22.2383 19.3565 22.3746 19.0906C22.3866 19.0688 22.3702 19.011 22.3506 19.0001C22.2088 18.9249 22.2492 18.7745 22.1816 18.6677C22.1151 18.5511 22.0017 18.4693 21.9657 18.3331C21.9537 18.2829 21.909 18.2361 21.9046 18.1903C21.897 18.0268 21.8228 17.896 21.6658 17.823C21.6451 17.8121 21.6211 17.7696 21.6255 17.7489C21.644 17.6497 21.5557 17.6006 21.5066 17.5352C21.3943 17.4012 21.2722 17.2736 21.1381 17.1603C21.0018 17.0338 20.8535 16.9139 20.691 16.818C20.546 16.7297 20.377 16.6861 20.2287 16.6109C19.8765 16.4431 19.5047 16.3428 19.1765 16.2273C18.8439 16.1139 18.4972 16.0452 18.1864 15.8654C18.0054 15.7608 17.7797 15.727 17.5737 15.6659C17.3916 15.6114 17.2553 15.4676 17.059 15.4414C16.8802 15.4174 16.6806 15.4479 16.5487 15.2834C16.5378 15.2703 16.5062 15.2605 16.492 15.2659C16.3165 15.3324 16.1812 15.2082 16.0264 15.1787C15.9893 15.1711 15.9544 15.1101 15.925 15.1144C15.7724 15.1395 15.6524 15.0207 15.5161 15.0283C15.3689 15.0359 15.2381 15.0032 15.1105 14.9542C15.0026 14.9128 14.9066 14.843 14.7987 14.8005C14.7289 14.7722 14.6515 14.7188 14.5697 14.782C14.5261 14.6937 14.4323 14.6828 14.3494 14.6566L14.1488 14.5945L14.0975 14.5782H13.1718C13.1129 14.5782 13.0486 14.5782 12.9952 14.5989C12.8393 14.6566 12.6931 14.649 12.5339 14.5989C12.4336 14.5673 12.2941 14.5487 12.2101 14.5923C12.1174 14.6403 12.0356 14.6327 11.9495 14.6348C11.7434 14.6403 11.5363 14.6239 11.3313 14.6403C11.1001 14.6577 10.9115 14.5553 10.7305 14.455C10.64 14.4038 10.5386 14.3732 10.4808 14.4103C10.4012 14.4615 10.3292 14.4484 10.2529 14.4604C10.158 14.4757 10.0642 14.5138 9.96939 14.5138C9.87452 14.5138 9.78075 14.4768 9.68589 14.4604C9.64555 14.4539 9.58885 14.443 9.56486 14.4615C9.52997 14.4899 9.49398 14.5062 9.45691 14.5149L9.33043 14.5346C9.2541 14.5803 9.15706 14.588 9.0731 14.6163C8.78197 14.7144 8.48757 14.8081 8.19208 14.8932C7.90313 14.976 7.62835 15.0959 7.31651 15.1166C7.1584 15.1275 7.00357 15.2169 6.85201 15.2997C6.69063 15.388 6.49545 15.485 6.27629 15.4381C6.21523 15.4251 6.13999 15.4948 6.0713 15.4926C5.98952 15.4905 5.98843 15.6158 5.88157 15.5722C5.83033 15.5515 5.74855 15.606 5.67876 15.6202C5.24807 15.7095 4.87952 15.9504 4.45973 16.0692C4.35069 16.0997 4.20785 16.0899 4.14679 16.2218C4.14134 16.2338 4.10099 16.2469 4.09227 16.2414C3.92653 16.1139 3.85784 16.2022 3.76625 16.3439C3.74553 16.3777 3.66593 16.3831 3.6125 16.4028C3.19489 16.5619 2.79799 16.7821 2.46761 17.072C2.33895 17.1897 2.18957 17.2627 2.04782 17.3565C1.88862 17.4578 1.67382 17.5494 1.62257 17.7314C1.56696 17.9069 1.46447 18.0388 1.39468 18.1946C1.37069 18.2557 1.33035 18.3135 1.31509 18.3756C1.26493 18.6252 1.26384 18.6197 1.13299 18.8595C1.11991 18.8857 1.11337 18.9173 1.11119 18.9456C1.10573 19.0067 1.11882 19.0677 1.11119 19.1277C1.0305 19.604 0.943268 20.0945 1.07411 20.5065C1.08066 20.5293 1.06212 20.5599 1.05558 20.586C1.0414 20.6394 1.03377 20.695 1.01305 20.7462C0.946539 20.9076 1.16789 21.0623 1.02396 21.2247C1.121 21.3021 1.06539 21.4068 1.07411 21.4983C1.08175 21.5866 1.04467 21.6912 1.08284 21.7599C1.13844 21.8569 1.06321 21.9278 1.07629 22.0095L1.08175 22.0716L1.11337 22.4237L1.41431 22.3888C1.43394 22.3866 1.45138 22.3823 1.46229 22.3725C1.55497 22.2984 1.6651 22.3289 1.75778 22.342C1.85918 22.3561 1.95514 22.4084 2.05109 22.3354C2.412 22.3757 2.75874 22.2667 3.11529 22.2787C3.24287 22.2831 3.37044 22.3234 3.49911 22.3332C3.63431 22.343 3.77061 22.3354 3.90581 22.3354H4.2809H4.65599C4.77048 22.3354 4.88606 22.3398 4.99946 22.3332C5.11286 22.3267 5.23171 22.2722 5.33311 22.3049C5.46505 22.3474 5.57845 22.3256 5.69839 22.3321L6.19887 22.3354C6.40168 22.3452 6.59359 22.3169 6.81166 22.379C6.94578 22.4172 7.13114 22.4444 7.24999 22.3452C7.26526 22.3321 7.31542 22.33 7.33068 22.343C7.44844 22.4357 7.55748 22.3812 7.66543 22.3866C7.86605 22.3954 8.06668 22.3474 8.25968 22.3997C8.41669 22.4422 8.54645 22.4237 8.69038 22.4422C8.83431 22.4608 8.98151 22.4935 9.11998 22.4935C9.30099 22.4935 9.50489 22.5349 9.64336 22.4379C9.93668 22.4771 10.1667 22.3725 10.4437 22.3768L11.4458 22.3714C11.582 22.3681 11.7511 22.4128 11.8394 22.3202C11.8546 22.3038 11.931 22.3093 11.9582 22.3278C12.0575 22.3975 12.1338 22.3725 12.2079 22.367C12.3126 22.3605 12.4282 22.3834 12.5187 22.3289C12.571 22.2962 12.7357 22.3725 12.8491 22.3703C13.0279 22.367 13.1958 22.3321 13.4128 22.4128C13.4651 22.4324 13.5393 22.415 13.5763 22.3921C13.6668 22.3365 13.8064 22.3376 13.922 22.3757C14.0354 22.4128 14.1172 22.4095 14.2055 22.4095C14.3985 22.4106 14.574 22.3856 14.7529 22.3648C15.0832 22.3267 15.466 22.3616 15.7876 22.3038C16.0177 22.2624 16.3306 22.3267 16.54 22.2504C16.6348 22.2155 16.8082 22.2733 16.9456 22.2864C17.1659 22.3082 17.361 22.2842 17.5747 22.2907C17.7797 22.2973 18.0054 22.33 18.2061 22.33C18.4699 22.33 18.7393 22.3387 18.9639 22.2875C19.1885 22.2362 19.5232 22.3049 19.8111 22.3202C20.0891 22.3354 20.3094 22.2798 20.6387 22.3594C20.9985 22.3234 21.4641 22.4084 21.8447 22.3932C22.1434 22.3812 22.1543 22.3888 22.1903 22.2384C22.1958 22.2144 22.187 22.1817 22.1598 22.1512C22.1336 22.1218 22.0845 22.1 22.0475 22.0738H22.0802V22.0695C22.126 22.1174 22.1718 22.1588 22.2143 22.1785C22.3266 22.2362 22.4247 22.0302 22.4171 21.7893C22.4171 21.7588 22.4171 21.713 22.4313 21.7065C22.5109 21.6684 22.5065 21.5267 22.4836 21.4449L22.4858 21.4427Z" fill="black"/>
</svg>
