<svg width="253" height="78" viewBox="0 0 253 78" fill="none" xmlns="http://www.w3.org/2000/svg">
<g clip-path="url(#clip0_103_54)">
<path d="M175.141 34.1961C175.137 34.7464 176.061 35.3204 176.409 35.6073C177.066 36.1734 177.746 36.7119 178.434 37.2268C179.938 38.3589 181.515 39.3692 183.169 40.2575C184.506 40.9966 185.964 41.6884 187.471 41.9911C188.588 42.223 189.744 42.2112 190.865 42.4195C191.673 42.5768 192.678 42.8244 192.546 43.8622C192.403 45.0847 190.428 44.9274 189.589 44.9274C186.28 44.9274 182.894 44.5186 179.833 43.1821C176.664 41.8142 173.854 39.5893 171.214 37.3683C170.568 36.8337 169.934 36.2991 169.292 35.7606C168.535 35.112 168.063 34.9076 167.109 34.6521C165.504 34.2394 163.947 33.6379 162.486 32.836C157.121 29.88 153.611 24.4593 153.418 18.2406C153.224 12.0652 156.073 6.01559 161.303 2.69792C166.939 -0.867397 174.163 -0.906706 179.748 2.78047C184.584 5.96842 187.599 11.169 187.745 17.0378C187.9 23.3783 185.013 29.2825 179.462 32.4076C178.094 33.1702 176.633 33.748 175.137 34.1922M161.314 7.01796C158.52 11.3459 158.439 17.5488 159.463 22.4467C160.545 27.6473 163.603 31.7157 169.026 32.5491C174.279 33.3431 179.006 30.7409 180.95 25.729C182.813 20.9451 183.018 14.9662 181.372 10.0958C180.104 6.35757 177.127 3.46051 173.281 2.63895C168.925 1.69554 163.831 3.11066 161.311 7.01796" fill="black"/>
<path d="M90.1774 0.964591C96.4663 1.02748 102.747 0.964591 109.032 1.08252C110.505 1.10217 111.982 1.24761 113.454 1.18865C114.552 1.13755 115.422 0.622603 116.477 0.516469C118.468 0.308132 118.127 3.55111 118.158 4.809C118.201 6.22412 118.974 8.48438 118.216 9.75799C117.868 10.3476 117.01 10.3162 116.655 9.75799C116.222 9.10939 116.21 8.17777 116.145 7.41518C115.978 5.46939 115.491 3.69656 113.246 3.50394C111.978 3.39781 110.706 3.61794 109.434 3.61794C108.031 3.62187 106.632 3.61794 105.244 3.61794C105.306 11.4365 105.171 19.2511 105.225 27.0657C105.237 28.6027 105.032 30.3519 105.391 31.8574C105.615 32.8087 106.798 32.7773 107.571 32.8008C108.379 32.8323 109.423 32.7104 110.134 33.1704C111.096 33.7875 110.393 34.9275 109.45 34.9786C108.066 35.0493 106.605 34.7073 105.21 34.6523C103.439 34.5815 101.677 34.6602 99.9025 34.7348C98.7545 34.7899 97.3746 35.069 96.2344 34.8174C95.8324 34.7309 95.4768 34.4833 95.3801 34.0548C95.1869 33.1979 95.7357 32.8362 96.5165 32.7576C97.5718 32.6633 99.2377 33.2608 100.092 32.3567C100.826 31.5744 100.753 30.0885 100.745 29.094C100.722 25.9257 100.641 22.7535 100.641 19.5852C100.641 14.7699 100.826 9.92701 100.54 5.11954C100.509 4.62032 100.471 4.12502 100.428 3.62187C99.8484 3.63366 99.2802 3.6258 98.6966 3.60222C97.6413 3.56291 96.5861 3.54325 95.5347 3.51181C94.1394 3.45284 91.252 2.7217 90.4867 4.3766C89.7716 5.90178 90.0653 7.78075 89.5049 9.36883C88.9328 10.9962 87.4949 10.0764 87.3983 8.75168C87.2553 6.98671 87.7152 5.15492 87.8776 3.40567C88.0013 2.00234 88.3298 -0.202883 90.1736 0.964591" fill="black"/>
<path d="M129.464 3.62181C129.426 4.53377 130.446 5.49684 130.891 6.20833C131.637 7.41118 132.367 8.60224 133.094 9.79723C134.567 12.2147 136.043 14.6401 137.616 16.979C139.603 13.9718 141.447 10.8664 143.321 7.78069C143.948 6.74293 147.09 3.24837 144.346 2.99287C143.754 2.94963 142.749 3.099 142.386 2.48578C141.385 0.771916 144.23 0.929151 145.088 1.00777C146.715 1.16894 148.385 1.09032 150.02 0.944875C150.812 0.874119 152.583 0.422066 152.938 1.49913C153.622 3.51961 151.037 2.81991 150.144 3.1619C148.895 3.6336 148.207 5.34747 147.585 6.42846C145.815 9.54959 143.805 12.5489 141.903 15.5874C141.076 16.9239 140.001 18.2644 139.394 19.7227C138.722 21.3344 138.973 23.5003 139.016 25.226C139.054 27.0813 139.151 28.9446 139.182 30.8039C139.193 31.6687 139.244 32.164 140.175 32.3841C140.929 32.5689 141.733 32.4745 142.506 32.4667C143.325 32.4667 144.462 32.5807 144.535 33.6499C144.62 35.0453 143.256 35.1868 142.201 35.0925C139.418 34.8331 136.855 34.5382 134.052 34.7977C132.835 34.9038 128.606 35.6271 129.058 33.2293C129.252 32.1915 130.558 32.1365 131.382 32.1286C131.977 32.1207 132.572 32.1483 133.175 32.1561C133.596 32.1601 133.72 32.2741 133.902 31.8417C134.087 31.3896 134.195 30.9022 134.257 30.4147C134.474 28.8227 134.246 27.1914 134.25 25.5876C134.257 23.9445 134.447 22.207 134.064 20.5875C133.728 19.1645 132.669 17.8988 131.872 16.692C130.867 15.1629 129.909 13.5905 128.923 12.0457C128.003 10.6031 127.079 9.18795 126.167 7.74138C125.398 6.55818 124.822 5.22168 123.949 4.09352C123.183 3.10686 122.406 3.13045 121.305 2.81598C120.3 2.53295 120.292 1.14142 121.305 0.846602C122.685 0.429928 124.389 0.995976 125.777 1.13356C127.682 1.31438 129.453 0.736538 131.327 0.661851C131.965 0.638265 132.843 0.712952 133.21 1.35369C133.5 1.85291 133.283 2.52902 132.742 2.73343C131.695 3.14224 130.272 2.61943 129.464 3.62967" fill="black"/>
<path d="M51.4896 0.862434C52.2472 0.830987 53.4532 0.874226 53.4648 1.93164C53.4802 3.1109 52.3168 3.07945 51.4471 3.04801C50.7243 3.01656 49.4681 2.85146 49.0274 3.63371C48.5017 4.55747 48.6138 5.97652 48.6177 7.01427C48.637 14.0859 48.6795 21.1537 48.6795 28.2214C48.6795 29.2474 48.2659 31.6727 49.0931 32.4707C49.5802 32.9424 50.6856 32.7812 51.2925 32.8048C51.8723 32.8166 52.8734 32.7694 53.2561 33.3158C53.9595 34.3104 52.5216 35.0729 51.7525 35.0218C48.5443 34.786 45.3747 34.3221 42.1433 34.6248C41.4591 34.6916 39.6077 35.0415 39.6193 33.8701C39.6309 32.9503 41.034 32.8992 41.6563 32.8441C42.2979 32.7812 43.1251 32.8127 43.6817 32.455C44.219 32.1091 44.2499 31.1499 44.2924 30.5917C44.4393 28.5831 44.2112 26.5429 44.2112 24.5303C44.2112 19.0349 44.1262 13.5317 44.3349 8.04023C44.3929 6.60546 44.8336 3.97963 43.156 3.40179C42.5337 3.18559 38.2819 3.09911 39.7739 1.46779C40.7209 0.433967 43.4536 1.14546 44.6326 1.25159C46.9479 1.456 49.1936 0.960706 51.4973 0.862434" fill="black"/>
<path d="M218.83 3.40956C218.022 2.77276 214.605 3.49604 214.671 2.02589C214.741 0.614701 216.128 0.937034 217.091 1.04317C218.556 1.20826 220.055 1.38122 221.524 1.23185C222.568 1.12572 227.029 0.00541346 226.77 2.16347C226.541 4.16036 223.128 2.24602 222.39 3.67293C221.857 4.70675 222.05 6.21621 222.062 7.33652C222.081 9.09756 222.065 10.8625 222.065 12.6236C222.065 16.1574 222.259 19.707 222.205 23.237C222.174 26.1891 222.011 29.204 219.769 31.3582C217.945 33.1153 215.402 34.1727 212.974 34.6876C207.853 35.7765 200.71 35.4856 196.632 31.708C194.471 29.7151 194.247 26.4092 194.204 23.6379C194.143 20.0176 194.243 16.3933 194.255 12.7572C194.262 10.949 194.255 9.14866 194.224 7.33259C194.204 6.39311 194.193 5.4379 194.162 4.49842C194.139 3.76334 194.251 3.24053 193.439 3.0833C192.496 2.89462 191.514 3.15012 190.567 2.96537C189.883 2.81993 189.551 1.85686 190.169 1.4166C191.398 0.516429 193.563 1.01958 194.958 1.08248C196.686 1.13751 198.418 1.2004 200.138 1.09034C201.092 1.01565 203.744 0.241267 203.698 2.03375C203.647 3.97954 199.728 2.09665 199.21 3.84589C198.862 5.00157 199.082 6.38131 199.125 7.56844C199.198 9.36879 199.051 11.1809 199.021 12.9813C198.928 16.6999 198.858 20.4421 198.901 24.1725C198.932 26.5861 199.318 28.6812 201.251 30.2418C204.289 32.6986 208.862 33.1192 212.545 32.2898C214.354 31.8888 216.159 31.1184 217.489 29.778C219.182 28.0719 219.391 25.8982 219.337 23.5829C219.252 20.0962 219.244 16.6134 219.244 13.1189C219.244 11.3814 219.205 9.63216 219.263 7.8947C219.302 6.4049 219.414 4.82861 218.826 3.40563" fill="black"/>
<path d="M236.657 4.04638C236.398 7.85541 236.622 11.688 236.545 15.4971C238.219 15.7172 239.912 15.725 241.601 15.7172C242.482 15.7172 243.363 15.7054 244.248 15.7054C245.18 15.7054 245.57 15.5246 245.918 14.6244C246.27 13.7164 246.115 11.8964 246.966 11.2989C248.504 10.2139 248.535 12.6983 248.477 13.5041C248.373 15.0725 248.454 16.6763 248.458 18.2487C248.465 19.0034 248.91 23.1584 247.998 23.3038C245.988 23.6065 246.336 20.2849 245.814 19.1056C245.404 18.1779 242.791 18.4177 241.952 18.4256C240.182 18.4334 238.416 18.571 236.653 18.4649C236.437 22.1167 236.553 25.7685 236.522 29.4045C236.522 30.5641 236.622 31.37 237.813 31.6019C239.011 31.8417 240.256 31.8181 241.465 31.8181C243.653 31.8299 246.664 32.6357 248.686 31.6294C250.819 30.5641 249.567 26.932 251.067 25.4225C251.937 24.5538 252.659 25.6427 252.744 26.4485C252.856 27.5374 252.617 28.6262 252.536 29.7151C252.412 31.1302 252.547 32.8991 252.025 34.2474C251.685 35.124 250.066 34.8724 249.354 34.8449C246.208 34.7191 243.089 34.4754 239.935 34.499C236.17 34.5186 232.355 34.9707 228.598 34.837C227.836 34.8095 226.453 34.0902 227.427 33.2096C228.107 32.5807 229.379 32.6986 230.237 32.6121C230.809 32.5492 231.087 32.4588 231.481 32.0304C231.953 31.5311 231.771 30.5052 231.783 29.7898C231.821 27.9265 231.833 26.0633 231.845 24.1922C231.872 20.4146 231.864 16.6252 231.852 12.8319C231.845 11.0394 231.841 9.23908 231.841 7.44267C231.841 6.44815 232.351 4.38837 231.439 3.66115C230.434 2.86711 227.759 3.93631 227.226 2.60374C226.661 1.16897 228.428 1.12966 229.321 1.1729C231.23 1.24759 233.151 1.18076 235.053 1.18076C238.818 1.18076 242.575 1.18076 246.34 1.2869C247.055 1.30655 247.785 1.31834 248.485 1.15718C248.987 1.03532 249.397 0.665817 249.9 1.05104C250.804 1.73502 250.657 3.58254 250.719 4.58098C250.765 5.61087 251.933 10.379 250.1 10.2768C248.191 10.1707 248.458 5.72487 247.619 4.62422C246.672 3.37813 244.163 3.94418 242.849 4.02673C240.777 4.16038 238.725 3.76336 236.653 4.04638" fill="black"/>
<path d="M0.850264 2.45451C0.819342 1.67619 0.79615 1.09049 1.69677 1.04725C2.57806 0.996147 3.45548 1.05118 4.3329 1.10621C6.19598 1.24772 8.00881 1.31455 9.87188 1.22021C13.196 1.03153 16.5357 0.823188 19.8676 1.05118C26.3265 1.4993 32.5148 4.93883 35.0427 11.2636C37.447 17.2582 35.4331 24.7741 31.4403 29.5737C29.5501 31.8457 27.0764 33.7365 24.1851 34.3851C21.1045 35.0769 17.8421 35.0337 14.7035 34.8765C12.4732 34.79 10.2623 34.6563 8.032 34.6681C6.90333 34.6681 5.7592 34.731 4.63053 34.7625C3.64874 34.7939 1.90163 35.1398 1.06286 34.448C0.467599 33.937 0.877321 33.0565 1.5151 32.8481C2.38866 32.573 3.34725 32.7184 4.23627 32.5022C5.83264 32.1248 5.44225 29.3103 5.42678 28.0878C5.35334 22.4588 5.11756 16.814 5.29923 11.185C5.36881 9.00729 5.7476 6.70773 5.39973 4.53001C4.93203 1.65654 2.30362 3.92466 0.850264 2.45451ZM9.95692 3.72811C9.95692 11.012 10.1927 18.3196 9.93759 25.5996C9.89894 26.7199 9.8371 27.8323 9.83323 28.9605C9.83323 29.7349 9.68248 31.0556 10.1695 31.7239C10.8227 32.6476 13.026 32.3607 13.9846 32.3843C15.7278 32.4236 17.4749 32.4472 19.2143 32.3607C21.9896 32.2192 24.4711 31.7318 26.4888 29.672C28.464 27.6633 29.5772 24.892 30.1686 22.1679C31.4171 16.307 30.4044 9.46328 25.3215 5.725C23.2884 4.23913 20.8803 3.69274 18.4219 3.52371C17.015 3.4215 15.5964 3.4215 14.1856 3.4215C13.4512 3.4215 10.2352 3.01269 9.96079 3.72811" fill="black"/>
<path d="M67.952 19.6323C67.7587 23.2094 67.7973 26.7983 67.8515 30.3636C67.8708 31.3463 67.8128 32.5924 68.9917 32.7379C69.9542 32.8597 70.9283 32.6671 71.8791 32.7811C72.6676 32.8912 73.3441 33.4297 73.0155 34.3102C72.5942 35.462 70.2518 34.8409 69.3937 34.7623C67.8437 34.6247 66.3015 34.4674 64.7476 34.4792C63.1126 34.4832 61.4892 34.9195 59.8696 34.8763C59.0386 34.8527 57.9486 34.0783 58.7912 33.2096C59.3865 32.5806 60.5963 32.7064 61.3694 32.6671C61.7675 32.6435 62.1811 32.616 62.556 32.4863C63.1667 32.274 63.0508 31.5035 63.0933 30.9454C63.2672 28.9878 63.1435 27.0105 63.1435 25.053V13.5748C63.1435 10.8625 63.3407 8.09904 63.217 5.39066C63.186 4.7853 63.2054 3.88513 62.8034 3.38984C62.3318 2.78448 61.1104 3.02426 60.461 3.04392C59.7034 3.05571 58.7448 2.92599 58.8724 1.91182C58.9845 0.991996 60.2871 1.10599 60.9287 1.14923C63.5339 1.34578 66.1044 1.32612 68.725 1.29074C71.4346 1.25143 74.2872 1.22785 76.877 2.15161C81.9676 3.97554 84.3795 10.0016 81.4883 14.7658C78.5931 19.5419 72.9575 20.0529 67.9481 19.6323M75.0525 16.5583C77.5341 14.7619 78.5506 10.9882 77.3717 8.158C76.761 6.70751 75.6903 5.13122 74.2099 4.47476C72.8145 3.84582 71.1331 3.73182 69.6218 3.68858C69.2739 3.68072 68.9337 3.68072 68.5859 3.68858C68.0563 3.70824 67.952 3.55494 67.9288 4.16029C67.8785 5.20591 67.8476 6.24366 67.836 7.28928C67.8128 9.43554 67.8437 11.5897 67.8631 13.7438C67.8631 14.813 67.8708 15.8901 67.8553 16.9553C67.8515 17.6472 68.1104 17.4388 68.698 17.4781C69.243 17.5332 69.7841 17.5725 70.3291 17.5921C71.941 17.6432 73.6958 17.541 75.0525 16.5583Z" fill="black"/>
<path d="M113.864 59.3498C115.051 62.3255 116.141 65.3601 117.277 68.3633C117.814 69.7863 118.371 71.1975 118.943 72.6087C119.233 73.2966 119.523 73.9924 119.832 74.6763C120.149 75.3957 120.709 75.1716 121.374 75.3643C121.85 75.5018 122.058 76.3312 121.622 76.6221C121.208 76.8855 120.551 76.7361 120.106 76.6732C118.827 76.5121 117.621 76.6536 116.338 76.7125C115.754 76.7322 114.517 76.8069 114.575 75.8988C114.629 75.0537 116.237 75.2738 116.782 75.1913C116.608 74.012 116.121 72.9507 115.619 71.8894C115.356 71.3115 115.093 70.7297 114.9 70.1204H110.899C109.929 70.1204 109.871 70.2855 109.469 71.1661C108.913 72.3886 108.53 73.6818 107.923 74.8729C108.507 75.1756 110.285 74.9554 109.883 76.1386C109.624 76.917 108.008 76.5907 107.44 76.571C106.787 76.5396 104.989 77.0231 104.533 76.402C104.317 76.1033 104.44 75.4547 104.773 75.2974C104.97 75.2031 105.21 75.1913 105.414 75.1481C105.886 75.0655 105.909 74.7471 106.114 74.3265C107.525 71.4609 108.63 68.4577 109.782 65.482C110.358 63.9883 110.946 62.4945 111.587 61.0244C112.094 59.8726 112.399 58.6187 113.856 59.3498M110.524 68.4341H114.173C113.617 66.8303 113.048 65.2383 112.403 63.6817C111.796 65.2737 111.108 66.8303 110.521 68.4341" fill="black"/>
<path d="M150.685 60.5132C150.434 61.2404 149.073 60.8198 148.52 61.0438C148.474 62.4904 148.435 63.9448 148.416 65.3993C148.373 68.5204 148.397 71.6415 148.513 74.7626C148.544 75.8908 150.198 74.7626 150.623 75.6982C151.083 76.6966 149.854 76.8145 149.228 76.7713C148.2 76.6966 147.237 76.5197 146.19 76.5984C145.567 76.6612 144.941 76.7713 144.319 76.7556C143.488 76.7359 143.437 76.2917 143.468 75.5134C143.758 75.0496 144.408 75.0771 144.86 75.1046C145.084 75.1282 145.308 75.1557 145.532 75.195C145.614 74.7665 145.66 74.342 145.699 73.9057C145.846 72.2115 145.753 70.5015 145.741 68.8073C145.726 67.2389 145.733 65.6665 145.733 64.106C145.733 63.08 146.267 61.205 144.964 61.036C144.469 60.9652 143.553 61.036 143.449 60.352C143.236 59.0116 145.614 59.613 146.275 59.6484C147.357 59.7309 150.747 58.5202 150.681 60.5132" fill="black"/>
<path d="M164.376 59.4602C164.805 59.8926 164.7 60.6512 164.685 61.2094C164.654 61.9445 164.851 62.6128 164.905 63.3321C165.017 64.7433 163.475 64.3699 163.294 63.2771C163.147 62.4319 163.178 61.4335 162.269 61.0208C161.137 60.4901 159.374 60.6002 158.377 61.3863C157.31 62.2275 156.792 63.792 157.731 64.9477C158.605 66.0326 160.147 66.3825 161.388 66.8149C164.055 67.7347 166.393 69.8613 165.74 73.0296C165.172 75.7891 162.625 76.9173 160.085 77.0116C158.702 77.0627 157.314 76.8622 155.984 76.4927C155.517 76.3551 154.639 76.304 154.628 75.7734C154.616 75.2584 154.5 74.7474 154.43 74.2246C154.314 73.462 154.001 72.2356 154.473 71.5437C155.169 70.5099 155.845 72.1884 155.957 72.7034C156.317 74.4762 157.515 75.3017 159.308 75.455C161.121 75.5965 163.29 74.8025 163.263 72.6444C163.239 69.7316 159.335 69.2245 157.337 68.2418C154.917 67.0389 154.04 64.1655 155.439 61.7519C157.411 58.3399 161.229 59.696 164.372 59.4641" fill="black"/>
<path d="M133.925 68.4383C134.443 69.9123 135.637 71.0798 136.372 72.432C137.064 73.7292 137.535 75.0146 139.132 75.2033C139.688 75.2662 140.194 75.4628 140.055 76.1585C139.881 77.0548 139.12 76.9565 138.324 76.9486C136.866 76.9369 135.487 76.5595 134.64 75.2859C133.805 74.0201 133.148 72.6168 132.371 71.3157C131.973 70.6278 131.563 69.9359 131.111 69.2716H129.739C128.939 69.2716 128.819 69.1419 128.761 69.9792C128.657 71.5319 128.66 73.0964 128.792 74.6373C128.888 75.7654 130.732 74.8181 131.157 75.7261C131.768 77.0115 129.58 76.7678 129.02 76.7089C127.474 76.5398 125.955 76.8346 124.428 76.7167C123.303 76.6027 123.423 75.2898 124.49 75.1955C124.807 75.1679 125.112 75.1876 125.421 75.1955C126.04 75.1994 125.823 74.826 125.843 74.2992C125.885 73.23 125.912 72.1608 125.916 71.0995C125.935 69.2244 125.908 67.3376 125.897 65.4665C125.889 64.5192 125.885 63.5836 125.889 62.6441C125.897 61.6614 126.132 61.0718 125.031 61.0521C124.637 61.0325 123.96 61.1268 123.713 60.7259C123.651 60.2974 123.663 59.7431 124.115 59.5309C125.073 59.0985 126.631 59.7117 127.659 59.6606C130.442 59.5309 134.311 58.8626 136.14 61.6614C137.582 63.8745 136.48 67.6246 133.921 68.4383M132.673 67.2787C134.284 66.1269 134.087 62.6088 132.468 61.5867C131.934 61.2408 131.304 61.1661 130.697 61.1661C130.338 61.1583 129.986 61.1701 129.634 61.1701C128.811 61.1701 128.8 61.0757 128.745 61.9523C128.622 63.8706 128.776 65.7849 128.711 67.6914C129.963 67.6088 131.579 68.057 132.673 67.2787Z" fill="black"/>
<path d="M91.5457 59.5657C95.1482 59.6994 103.358 58.3275 103.455 64.0666C103.505 67.0501 101.24 68.8976 98.5149 69.1807C97.8616 69.2554 97.1968 69.2554 96.5436 69.2121C95.9135 69.1649 96.0913 69.3497 96.0565 69.9079C96.0333 70.297 96.014 70.698 95.9986 71.0911C95.9792 71.8615 95.6468 75.0534 96.4817 75.2342C97.0422 75.36 98.2057 75.0023 98.5419 75.647C99.373 77.239 96.3851 76.6887 95.7666 76.6297C95.0206 76.5747 94.2669 76.5118 93.517 76.5668C92.8831 76.6061 92.1294 76.956 91.4878 76.7319C90.9737 76.555 90.792 75.8671 91.2249 75.4858C91.5612 75.191 92.0985 75.2185 92.5121 75.1831C93.2697 75.132 93.2117 75.022 93.2465 74.2515C93.2697 73.3867 93.2929 72.5219 93.3083 71.6493C93.3392 69.8489 93.3431 68.0643 93.3315 66.2718C93.3083 64.5226 93.2697 62.7851 93.2155 61.0516C92.7169 60.8 92.1062 61.0202 91.5882 60.8747C91.0085 60.7135 91.0201 59.7898 91.5457 59.5657ZM100.583 64.3221C100.509 62.9306 99.5662 61.8771 98.3023 61.4565C97.5756 61.2049 96.7794 61.1617 96.014 61.256V66.3151C96.014 66.8732 95.7512 67.6791 96.3774 67.7498C97.1156 67.8442 97.8887 67.7891 98.5845 67.5061C99.8793 66.9833 100.664 65.7254 100.583 64.3221Z" fill="black"/>
</g>
<defs>
<clipPath id="clip0_103_54">
<rect width="253" height="78" fill="white"/>
</clipPath>
</defs>
</svg>
